<svg xmlns="http://www.w3.org/2000/svg" viewBox="0 0 280 96" role="img" aria-label="Batman theme">
  <rect width="280" height="96" fill="#12141b" />
  <path
    fill="#c4c6cc"
    d="M60 42
       C71 41, 79 36, 84 29
       C88 23, 91 24, 95 30
       C99 34, 104 36, 111 35
       C116 34, 120 33, 124 32
       C128 31, 131 29, 133 25
       C134 22, 137 20, 140 20
       L141 30
       L148 30
       L149 20
       C152 20, 154 22, 155 25
       C157 29, 160 31, 164 32
       C168 33, 172 34, 177 35
       C184 36, 189 34, 193 30
       C197 24, 199 23, 203 29
       C208 36, 216 41, 227 42
       L214 57
       C209 63, 202 65, 194 65
       C187 64, 181 66, 177 69
       C172 73, 164 75, 154 75
       C151 75, 149 76, 148 79
       L140 87
       L132 79
       C131 76, 129 75, 126 75
       C116 75, 108 73, 103 69
       C99 66, 93 64, 86 65
       C78 65, 71 63, 66 57
       Z"
  />
</svg>
